<mxfile host="app.diagrams.net" modified="2024-05-04T22:04:28.839Z" agent="Mozilla/5.0 (Windows NT 10.0; Win64; x64) AppleWebKit/537.36 (KHTML, like Gecko) Chrome/121.0.0.0 Safari/537.36 OPR/107.0.0.0 (Edition std-1)" etag="BwHwUKEndu5NXI227E_h" version="24.3.1" type="device">
  <diagram name="PÃ¡gina-1" id="l4NE68EZQSNj_xD1Rc4R">
    <mxGraphModel dx="719" dy="425" grid="1" gridSize="10" guides="1" tooltips="1" connect="1" arrows="1" fold="1" page="1" pageScale="1" pageWidth="827" pageHeight="1169" math="0" shadow="0">
      <root>
        <mxCell id="0" />
        <mxCell id="1" parent="0" />
        <mxCell id="wTnM5O4TAfv6Sd0sSYRb-1" value="CirculoPOO" style="rounded=0;whiteSpace=wrap;html=1;fontSize=17;" parent="1" vertex="1">
          <mxGeometry x="200" y="130" width="320" height="90" as="geometry" />
        </mxCell>
        <mxCell id="wTnM5O4TAfv6Sd0sSYRb-7" value="double radio;" style="rounded=0;whiteSpace=wrap;html=1;fontSize=17;" parent="1" vertex="1">
          <mxGeometry x="200" y="220" width="320" height="90" as="geometry" />
        </mxCell>
        <mxCell id="wTnM5O4TAfv6Sd0sSYRb-8" value="calcularArea();" style="rounded=0;whiteSpace=wrap;html=1;fontSize=17;" parent="1" vertex="1">
          <mxGeometry x="200" y="310" width="320" height="90" as="geometry" />
        </mxCell>
        <mxCell id="wTnM5O4TAfv6Sd0sSYRb-9" value="DIAGRAMA UML" style="rounded=0;whiteSpace=wrap;html=1;fontSize=17;" parent="1" vertex="1">
          <mxGeometry x="200" y="40" width="320" height="90" as="geometry" />
        </mxCell>
        <mxCell id="wTnM5O4TAfv6Sd0sSYRb-10" value="CostoAuto" style="rounded=0;whiteSpace=wrap;html=1;fontSize=17;" parent="1" vertex="1">
          <mxGeometry x="630" y="740" width="320" height="90" as="geometry" />
        </mxCell>
        <mxCell id="wTnM5O4TAfv6Sd0sSYRb-11" value="double costoAuto, costoFinal, gananciaImpuestos, gananciaVendedor;" style="rounded=0;whiteSpace=wrap;html=1;fontSize=17;" parent="1" vertex="1">
          <mxGeometry x="630" y="830" width="320" height="90" as="geometry" />
        </mxCell>
        <mxCell id="wTnM5O4TAfv6Sd0sSYRb-12" value="calcularCostoFinal();" style="rounded=0;whiteSpace=wrap;html=1;fontSize=17;" parent="1" vertex="1">
          <mxGeometry x="630" y="920" width="320" height="90" as="geometry" />
        </mxCell>
        <mxCell id="wTnM5O4TAfv6Sd0sSYRb-13" value="DIAGRAMA UML" style="rounded=0;whiteSpace=wrap;html=1;fontSize=17;" parent="1" vertex="1">
          <mxGeometry x="630" y="650" width="320" height="90" as="geometry" />
        </mxCell>
      </root>
    </mxGraphModel>
  </diagram>
</mxfile>
